<svg width="24" height="30" viewBox="0 0 24 30" fill="none" xmlns="http://www.w3.org/2000/svg">
<path d="M7.68 8.12C6.8 9.82667 6.36 12.08 6.36 14.88C6.36 17.68 6.8 19.9333 7.68 21.64C8.56 23.3467 9.93333 24.2 11.8 24.2C13.6667 24.2 15.04 23.3467 15.92 21.64C16.8 19.9333 17.24 17.68 17.24 14.88C17.24 12.08 16.8 9.82667 15.92 8.12C15.04 6.41333 13.6667 5.56 11.8 5.56C9.93333 5.56 8.56 6.41333 7.68 8.12ZM11.8 29.32C7.93333 29.32 5.04 28.0133 3.12 25.4C1.2 22.76 0.24 19.2533 0.24 14.88C0.24 10.48 1.2 6.97333 3.12 4.36C5.04 1.72 7.93333 0.399999 11.8 0.399999C15.6667 0.399999 18.56 1.72 20.48 4.36C22.4 6.97333 23.36 10.48 23.36 14.88C23.36 19.2533 22.4 22.76 20.48 25.4C18.56 28.0133 15.6667 29.32 11.8 29.32Z" fill="#23A6F0"/>
</svg>
