<svg width="10" height="16" viewBox="0 0 10 16" fill="none" xmlns="http://www.w3.org/2000/svg">
<path d="M9.76 10.22C9.76 11.0947 9.44 11.8467 8.8 12.476C8.16 13.0947 7.23733 13.4787 6.032 13.628V15.42H4.432V13.676C3.64267 13.6333 2.89067 13.4947 2.176 13.26C1.46133 13.0253 0.885333 12.7373 0.448 12.396L1.328 10.444C1.73333 10.7427 2.208 10.9933 2.752 11.196C3.296 11.3987 3.856 11.5267 4.432 11.58V8.908C3.67467 8.72667 3.03467 8.524 2.512 8.3C1.98933 8.076 1.552 7.75067 1.2 7.324C0.848 6.88667 0.672 6.31067 0.672 5.596C0.672 4.71067 0.992 3.95333 1.632 3.324C2.28267 2.684 3.216 2.29467 4.432 2.156V0.379999H6.032V2.124C7.344 2.23067 8.42667 2.556 9.28 3.1L8.48 5.068C7.68 4.60933 6.864 4.332 6.032 4.236V6.956C6.77867 7.12667 7.408 7.324 7.92 7.548C8.44267 7.76133 8.88 8.08667 9.232 8.524C9.584 8.95067 9.76 9.516 9.76 10.22ZM3.248 5.468C3.248 5.73467 3.34933 5.95333 3.552 6.124C3.75467 6.29467 4.048 6.43867 4.432 6.556V4.284C4.02667 4.38 3.728 4.53467 3.536 4.748C3.344 4.95067 3.248 5.19067 3.248 5.468ZM6.032 11.516C6.416 11.4307 6.704 11.292 6.896 11.1C7.088 10.908 7.184 10.6787 7.184 10.412C7.184 10.1453 7.08267 9.92667 6.88 9.756C6.688 9.58533 6.40533 9.436 6.032 9.308V11.516Z" fill="#23A6F0"/>
</svg>
