<svg width="72" height="72" viewBox="0 0 72 72" fill="none" xmlns="http://www.w3.org/2000/svg">
<rect width="72" height="72" rx="36" fill="white"/>
<g clip-path="url(#clip0_1579_80)">
<path d="M46.1818 36.1765H43.2727V40.5686H38.9091V43.4967H46.1818V36.1765ZM28.7273 31.7843H33.0909V28.8562H25.8182V36.1765H28.7273V31.7843ZM49.0909 23H22.9091C22.1376 23 21.3976 23.3085 20.8521 23.8576C20.3065 24.4067 20 25.1515 20 25.9281V46.4249C20 47.2014 20.3065 47.9462 20.8521 48.4953C21.3976 49.0445 22.1376 49.353 22.9091 49.353H49.0909C49.8624 49.353 50.6024 49.0445 51.1479 48.4953C51.6935 47.9462 52 47.2014 52 46.4249V25.9281C52 25.1515 51.6935 24.4067 51.1479 23.8576C50.6024 23.3085 49.8624 23 49.0909 23ZM49.0909 46.4249H22.9091V25.9281H49.0909V46.4249Z" fill="#23A6F0"/>
</g>
<defs>
<clipPath id="clip0_1579_80">
<rect width="32" height="26.353" fill="white" transform="translate(20 23)"/>
</clipPath>
</defs>
</svg>
